%TF.GenerationSoftware,KiCad,Pcbnew,9.0.6*%
%TF.CreationDate,2026-03-21T09:54:09+02:00*%
%TF.ProjectId,Rotom,526f746f-6d2e-46b6-9963-61645f706362,rev?*%
%TF.SameCoordinates,Original*%
%TF.FileFunction,Legend,Top*%
%TF.FilePolarity,Positive*%
%FSLAX46Y46*%
G04 Gerber Fmt 4.6, Leading zero omitted, Abs format (unit mm)*
G04 Created by KiCad (PCBNEW 9.0.6) date 2026-03-21 09:54:09*
%MOMM*%
%LPD*%
G01*
G04 APERTURE LIST*
%ADD10C,0.120000*%
G04 APERTURE END LIST*
D10*
%TO.C,J6*%
X107936600Y-83671800D02*
X107936600Y-96431800D01*
X107936600Y-83671800D02*
X110596600Y-83671800D01*
X107936600Y-96431800D02*
X110596600Y-96431800D01*
X109266600Y-81071800D02*
X110596600Y-81071800D01*
X110596600Y-81071800D02*
X110596600Y-82401800D01*
X110596600Y-83671800D02*
X110596600Y-96431800D01*
%TO.C,J5*%
X107936600Y-101451800D02*
X107936600Y-114211800D01*
X107936600Y-101451800D02*
X110596600Y-101451800D01*
X107936600Y-114211800D02*
X110596600Y-114211800D01*
X109266600Y-98851800D02*
X110596600Y-98851800D01*
X110596600Y-98851800D02*
X110596600Y-100181800D01*
X110596600Y-101451800D02*
X110596600Y-114211800D01*
%TO.C,J4*%
X156196600Y-74527800D02*
X156196600Y-92367800D01*
X156196600Y-74527800D02*
X158856600Y-74527800D01*
X156196600Y-92367800D02*
X158856600Y-92367800D01*
X157526600Y-71927800D02*
X158856600Y-71927800D01*
X158856600Y-71927800D02*
X158856600Y-73257800D01*
X158856600Y-74527800D02*
X158856600Y-92367800D01*
%TO.C,J1*%
X173519400Y-78541000D02*
X173519400Y-114161000D01*
X173519400Y-78541000D02*
X176179400Y-78541000D01*
X173519400Y-114161000D02*
X176179400Y-114161000D01*
X174849400Y-75941000D02*
X176179400Y-75941000D01*
X176179400Y-75941000D02*
X176179400Y-77271000D01*
X176179400Y-78541000D02*
X176179400Y-114161000D01*
%TO.C,J3*%
X156196600Y-96371800D02*
X156196600Y-114211800D01*
X156196600Y-96371800D02*
X158856600Y-96371800D01*
X156196600Y-114211800D02*
X158856600Y-114211800D01*
X157526600Y-93771800D02*
X158856600Y-93771800D01*
X158856600Y-93771800D02*
X158856600Y-95101800D01*
X158856600Y-96371800D02*
X158856600Y-114211800D01*
%TO.C,J2*%
X202588600Y-78550000D02*
X202588600Y-114170000D01*
X202588600Y-75950000D02*
X202588600Y-77280000D01*
X201258600Y-75950000D02*
X202588600Y-75950000D01*
X199928600Y-114170000D02*
X202588600Y-114170000D01*
X199928600Y-78550000D02*
X202588600Y-78550000D01*
X199928600Y-78550000D02*
X199928600Y-114170000D01*
%TD*%
M02*
