%TF.GenerationSoftware,KiCad,Pcbnew,9.0.6*%
%TF.CreationDate,2026-03-21T09:54:07+02:00*%
%TF.ProjectId,Rotom,526f746f-6d2e-46b6-9963-61645f706362,rev?*%
%TF.SameCoordinates,Original*%
%TF.FileFunction,Drillmap*%
%TF.FilePolarity,Positive*%
%FSLAX45Y45*%
G04 Gerber Fmt 4.5, Leading zero omitted, Abs format (unit mm)*
G04 Created by KiCad (PCBNEW 9.0.6) date 2026-03-21 09:54:07*
%MOMM*%
%LPD*%
G01*
G04 APERTURE LIST*
%ADD10C,0.050000*%
%ADD11C,0.200000*%
G04 APERTURE END LIST*
D10*
X10500000Y-6700000D02*
X20500000Y-6700000D01*
X20500000Y-12000000D01*
X10500000Y-12000000D01*
X10500000Y-6700000D01*
D11*
X10758277Y-12313984D02*
X10758277Y-12113984D01*
X10758277Y-12113984D02*
X10805896Y-12113984D01*
X10805896Y-12113984D02*
X10834467Y-12123508D01*
X10834467Y-12123508D02*
X10853515Y-12142555D01*
X10853515Y-12142555D02*
X10863039Y-12161603D01*
X10863039Y-12161603D02*
X10872563Y-12199698D01*
X10872563Y-12199698D02*
X10872563Y-12228269D01*
X10872563Y-12228269D02*
X10863039Y-12266365D01*
X10863039Y-12266365D02*
X10853515Y-12285412D01*
X10853515Y-12285412D02*
X10834467Y-12304460D01*
X10834467Y-12304460D02*
X10805896Y-12313984D01*
X10805896Y-12313984D02*
X10758277Y-12313984D01*
X10958277Y-12313984D02*
X10958277Y-12180650D01*
X10958277Y-12218746D02*
X10967801Y-12199698D01*
X10967801Y-12199698D02*
X10977324Y-12190174D01*
X10977324Y-12190174D02*
X10996372Y-12180650D01*
X10996372Y-12180650D02*
X11015420Y-12180650D01*
X11082086Y-12313984D02*
X11082086Y-12180650D01*
X11082086Y-12113984D02*
X11072563Y-12123508D01*
X11072563Y-12123508D02*
X11082086Y-12133031D01*
X11082086Y-12133031D02*
X11091610Y-12123508D01*
X11091610Y-12123508D02*
X11082086Y-12113984D01*
X11082086Y-12113984D02*
X11082086Y-12133031D01*
X11205896Y-12313984D02*
X11186848Y-12304460D01*
X11186848Y-12304460D02*
X11177324Y-12285412D01*
X11177324Y-12285412D02*
X11177324Y-12113984D01*
X11310658Y-12313984D02*
X11291610Y-12304460D01*
X11291610Y-12304460D02*
X11282086Y-12285412D01*
X11282086Y-12285412D02*
X11282086Y-12113984D01*
X11539229Y-12313984D02*
X11539229Y-12113984D01*
X11539229Y-12113984D02*
X11605896Y-12256841D01*
X11605896Y-12256841D02*
X11672562Y-12113984D01*
X11672562Y-12113984D02*
X11672562Y-12313984D01*
X11853515Y-12313984D02*
X11853515Y-12209222D01*
X11853515Y-12209222D02*
X11843991Y-12190174D01*
X11843991Y-12190174D02*
X11824943Y-12180650D01*
X11824943Y-12180650D02*
X11786848Y-12180650D01*
X11786848Y-12180650D02*
X11767801Y-12190174D01*
X11853515Y-12304460D02*
X11834467Y-12313984D01*
X11834467Y-12313984D02*
X11786848Y-12313984D01*
X11786848Y-12313984D02*
X11767801Y-12304460D01*
X11767801Y-12304460D02*
X11758277Y-12285412D01*
X11758277Y-12285412D02*
X11758277Y-12266365D01*
X11758277Y-12266365D02*
X11767801Y-12247317D01*
X11767801Y-12247317D02*
X11786848Y-12237793D01*
X11786848Y-12237793D02*
X11834467Y-12237793D01*
X11834467Y-12237793D02*
X11853515Y-12228269D01*
X11948753Y-12180650D02*
X11948753Y-12380650D01*
X11948753Y-12190174D02*
X11967801Y-12180650D01*
X11967801Y-12180650D02*
X12005896Y-12180650D01*
X12005896Y-12180650D02*
X12024943Y-12190174D01*
X12024943Y-12190174D02*
X12034467Y-12199698D01*
X12034467Y-12199698D02*
X12043991Y-12218746D01*
X12043991Y-12218746D02*
X12043991Y-12275888D01*
X12043991Y-12275888D02*
X12034467Y-12294936D01*
X12034467Y-12294936D02*
X12024943Y-12304460D01*
X12024943Y-12304460D02*
X12005896Y-12313984D01*
X12005896Y-12313984D02*
X11967801Y-12313984D01*
X11967801Y-12313984D02*
X11948753Y-12304460D01*
X12129705Y-12294936D02*
X12139229Y-12304460D01*
X12139229Y-12304460D02*
X12129705Y-12313984D01*
X12129705Y-12313984D02*
X12120182Y-12304460D01*
X12120182Y-12304460D02*
X12129705Y-12294936D01*
X12129705Y-12294936D02*
X12129705Y-12313984D01*
X12129705Y-12190174D02*
X12139229Y-12199698D01*
X12139229Y-12199698D02*
X12129705Y-12209222D01*
X12129705Y-12209222D02*
X12120182Y-12199698D01*
X12120182Y-12199698D02*
X12129705Y-12190174D01*
X12129705Y-12190174D02*
X12129705Y-12209222D01*
M02*
