%TF.GenerationSoftware,KiCad,Pcbnew,9.0.6*%
%TF.CreationDate,2026-03-21T09:54:07+02:00*%
%TF.ProjectId,Rotom,526f746f-6d2e-46b6-9963-61645f706362,rev?*%
%TF.SameCoordinates,Original*%
%TF.FileFunction,Drillmap*%
%TF.FilePolarity,Positive*%
%FSLAX45Y45*%
G04 Gerber Fmt 4.5, Leading zero omitted, Abs format (unit mm)*
G04 Created by KiCad (PCBNEW 9.0.6) date 2026-03-21 09:54:07*
%MOMM*%
%LPD*%
G01*
G04 APERTURE LIST*
%ADD10C,0.050000*%
%ADD11C,0.200000*%
%ADD12C,0.100000*%
G04 APERTURE END LIST*
D10*
X10500000Y-6700000D02*
X20500000Y-6700000D01*
X20500000Y-12000000D01*
X10500000Y-12000000D01*
X10500000Y-6700000D01*
D11*
D12*
X10876660Y-8190180D02*
X10976660Y-8290180D01*
X10976660Y-8190180D02*
X10876660Y-8290180D01*
X10876660Y-8444180D02*
X10976660Y-8544180D01*
X10976660Y-8444180D02*
X10876660Y-8544180D01*
X10876660Y-8698180D02*
X10976660Y-8798180D01*
X10976660Y-8698180D02*
X10876660Y-8798180D01*
X10876660Y-8952180D02*
X10976660Y-9052180D01*
X10976660Y-8952180D02*
X10876660Y-9052180D01*
X10876660Y-9206180D02*
X10976660Y-9306180D01*
X10976660Y-9206180D02*
X10876660Y-9306180D01*
X10876660Y-9460180D02*
X10976660Y-9560180D01*
X10976660Y-9460180D02*
X10876660Y-9560180D01*
X10876660Y-9968180D02*
X10976660Y-10068180D01*
X10976660Y-9968180D02*
X10876660Y-10068180D01*
X10876660Y-10222180D02*
X10976660Y-10322180D01*
X10976660Y-10222180D02*
X10876660Y-10322180D01*
X10876660Y-10476180D02*
X10976660Y-10576180D01*
X10976660Y-10476180D02*
X10876660Y-10576180D01*
X10876660Y-10730180D02*
X10976660Y-10830180D01*
X10976660Y-10730180D02*
X10876660Y-10830180D01*
X10876660Y-10984180D02*
X10976660Y-11084180D01*
X10976660Y-10984180D02*
X10876660Y-11084180D01*
X10876660Y-11238180D02*
X10976660Y-11338180D01*
X10976660Y-11238180D02*
X10876660Y-11338180D01*
X15702660Y-7275780D02*
X15802660Y-7375780D01*
X15802660Y-7275780D02*
X15702660Y-7375780D01*
X15702660Y-7529780D02*
X15802660Y-7629780D01*
X15802660Y-7529780D02*
X15702660Y-7629780D01*
X15702660Y-7783780D02*
X15802660Y-7883780D01*
X15802660Y-7783780D02*
X15702660Y-7883780D01*
X15702660Y-8037780D02*
X15802660Y-8137780D01*
X15802660Y-8037780D02*
X15702660Y-8137780D01*
X15702660Y-8291780D02*
X15802660Y-8391780D01*
X15802660Y-8291780D02*
X15702660Y-8391780D01*
X15702660Y-8545780D02*
X15802660Y-8645780D01*
X15802660Y-8545780D02*
X15702660Y-8645780D01*
X15702660Y-8799780D02*
X15802660Y-8899780D01*
X15802660Y-8799780D02*
X15702660Y-8899780D01*
X15702660Y-9053780D02*
X15802660Y-9153780D01*
X15802660Y-9053780D02*
X15702660Y-9153780D01*
X15702660Y-9460180D02*
X15802660Y-9560180D01*
X15802660Y-9460180D02*
X15702660Y-9560180D01*
X15702660Y-9714180D02*
X15802660Y-9814180D01*
X15802660Y-9714180D02*
X15702660Y-9814180D01*
X15702660Y-9968180D02*
X15802660Y-10068180D01*
X15802660Y-9968180D02*
X15702660Y-10068180D01*
X15702660Y-10222180D02*
X15802660Y-10322180D01*
X15802660Y-10222180D02*
X15702660Y-10322180D01*
X15702660Y-10476180D02*
X15802660Y-10576180D01*
X15802660Y-10476180D02*
X15702660Y-10576180D01*
X15702660Y-10730180D02*
X15802660Y-10830180D01*
X15802660Y-10730180D02*
X15702660Y-10830180D01*
X15702660Y-10984180D02*
X15802660Y-11084180D01*
X15802660Y-10984180D02*
X15702660Y-11084180D01*
X15702660Y-11238180D02*
X15802660Y-11338180D01*
X15802660Y-11238180D02*
X15702660Y-11338180D01*
X17434940Y-7677100D02*
X17534940Y-7777100D01*
X17534940Y-7677100D02*
X17434940Y-7777100D01*
X17434940Y-7931100D02*
X17534940Y-8031100D01*
X17534940Y-7931100D02*
X17434940Y-8031100D01*
X17434940Y-8185100D02*
X17534940Y-8285100D01*
X17534940Y-8185100D02*
X17434940Y-8285100D01*
X17434940Y-8439100D02*
X17534940Y-8539100D01*
X17534940Y-8439100D02*
X17434940Y-8539100D01*
X17434940Y-8693100D02*
X17534940Y-8793100D01*
X17534940Y-8693100D02*
X17434940Y-8793100D01*
X17434940Y-8947100D02*
X17534940Y-9047100D01*
X17534940Y-8947100D02*
X17434940Y-9047100D01*
X17434940Y-9201100D02*
X17534940Y-9301100D01*
X17534940Y-9201100D02*
X17434940Y-9301100D01*
X17434940Y-9455100D02*
X17534940Y-9555100D01*
X17534940Y-9455100D02*
X17434940Y-9555100D01*
X17434940Y-9709100D02*
X17534940Y-9809100D01*
X17534940Y-9709100D02*
X17434940Y-9809100D01*
X17434940Y-9963100D02*
X17534940Y-10063100D01*
X17534940Y-9963100D02*
X17434940Y-10063100D01*
X17434940Y-10217100D02*
X17534940Y-10317100D01*
X17534940Y-10217100D02*
X17434940Y-10317100D01*
X17434940Y-10471100D02*
X17534940Y-10571100D01*
X17534940Y-10471100D02*
X17434940Y-10571100D01*
X17434940Y-10725100D02*
X17534940Y-10825100D01*
X17534940Y-10725100D02*
X17434940Y-10825100D01*
X17434940Y-10979100D02*
X17534940Y-11079100D01*
X17534940Y-10979100D02*
X17434940Y-11079100D01*
X17434940Y-11233100D02*
X17534940Y-11333100D01*
X17534940Y-11233100D02*
X17434940Y-11333100D01*
X20075860Y-7678000D02*
X20175860Y-7778000D01*
X20175860Y-7678000D02*
X20075860Y-7778000D01*
X20075860Y-7932000D02*
X20175860Y-8032000D01*
X20175860Y-7932000D02*
X20075860Y-8032000D01*
X20075860Y-8186000D02*
X20175860Y-8286000D01*
X20175860Y-8186000D02*
X20075860Y-8286000D01*
X20075860Y-8440000D02*
X20175860Y-8540000D01*
X20175860Y-8440000D02*
X20075860Y-8540000D01*
X20075860Y-8694000D02*
X20175860Y-8794000D01*
X20175860Y-8694000D02*
X20075860Y-8794000D01*
X20075860Y-8948000D02*
X20175860Y-9048000D01*
X20175860Y-8948000D02*
X20075860Y-9048000D01*
X20075860Y-9202000D02*
X20175860Y-9302000D01*
X20175860Y-9202000D02*
X20075860Y-9302000D01*
X20075860Y-9456000D02*
X20175860Y-9556000D01*
X20175860Y-9456000D02*
X20075860Y-9556000D01*
X20075860Y-9710000D02*
X20175860Y-9810000D01*
X20175860Y-9710000D02*
X20075860Y-9810000D01*
X20075860Y-9964000D02*
X20175860Y-10064000D01*
X20175860Y-9964000D02*
X20075860Y-10064000D01*
X20075860Y-10218000D02*
X20175860Y-10318000D01*
X20175860Y-10218000D02*
X20075860Y-10318000D01*
X20075860Y-10472000D02*
X20175860Y-10572000D01*
X20175860Y-10472000D02*
X20075860Y-10572000D01*
X20075860Y-10726000D02*
X20175860Y-10826000D01*
X20175860Y-10726000D02*
X20075860Y-10826000D01*
X20075860Y-10980000D02*
X20175860Y-11080000D01*
X20175860Y-10980000D02*
X20075860Y-11080000D01*
X20075860Y-11234000D02*
X20175860Y-11334000D01*
X20175860Y-11234000D02*
X20075860Y-11334000D01*
D11*
X10758277Y-12313984D02*
X10758277Y-12113984D01*
X10758277Y-12113984D02*
X10805896Y-12113984D01*
X10805896Y-12113984D02*
X10834467Y-12123508D01*
X10834467Y-12123508D02*
X10853515Y-12142555D01*
X10853515Y-12142555D02*
X10863039Y-12161603D01*
X10863039Y-12161603D02*
X10872563Y-12199698D01*
X10872563Y-12199698D02*
X10872563Y-12228269D01*
X10872563Y-12228269D02*
X10863039Y-12266365D01*
X10863039Y-12266365D02*
X10853515Y-12285412D01*
X10853515Y-12285412D02*
X10834467Y-12304460D01*
X10834467Y-12304460D02*
X10805896Y-12313984D01*
X10805896Y-12313984D02*
X10758277Y-12313984D01*
X10958277Y-12313984D02*
X10958277Y-12180650D01*
X10958277Y-12218746D02*
X10967801Y-12199698D01*
X10967801Y-12199698D02*
X10977324Y-12190174D01*
X10977324Y-12190174D02*
X10996372Y-12180650D01*
X10996372Y-12180650D02*
X11015420Y-12180650D01*
X11082086Y-12313984D02*
X11082086Y-12180650D01*
X11082086Y-12113984D02*
X11072563Y-12123508D01*
X11072563Y-12123508D02*
X11082086Y-12133031D01*
X11082086Y-12133031D02*
X11091610Y-12123508D01*
X11091610Y-12123508D02*
X11082086Y-12113984D01*
X11082086Y-12113984D02*
X11082086Y-12133031D01*
X11205896Y-12313984D02*
X11186848Y-12304460D01*
X11186848Y-12304460D02*
X11177324Y-12285412D01*
X11177324Y-12285412D02*
X11177324Y-12113984D01*
X11310658Y-12313984D02*
X11291610Y-12304460D01*
X11291610Y-12304460D02*
X11282086Y-12285412D01*
X11282086Y-12285412D02*
X11282086Y-12113984D01*
X11539229Y-12313984D02*
X11539229Y-12113984D01*
X11539229Y-12113984D02*
X11605896Y-12256841D01*
X11605896Y-12256841D02*
X11672562Y-12113984D01*
X11672562Y-12113984D02*
X11672562Y-12313984D01*
X11853515Y-12313984D02*
X11853515Y-12209222D01*
X11853515Y-12209222D02*
X11843991Y-12190174D01*
X11843991Y-12190174D02*
X11824943Y-12180650D01*
X11824943Y-12180650D02*
X11786848Y-12180650D01*
X11786848Y-12180650D02*
X11767801Y-12190174D01*
X11853515Y-12304460D02*
X11834467Y-12313984D01*
X11834467Y-12313984D02*
X11786848Y-12313984D01*
X11786848Y-12313984D02*
X11767801Y-12304460D01*
X11767801Y-12304460D02*
X11758277Y-12285412D01*
X11758277Y-12285412D02*
X11758277Y-12266365D01*
X11758277Y-12266365D02*
X11767801Y-12247317D01*
X11767801Y-12247317D02*
X11786848Y-12237793D01*
X11786848Y-12237793D02*
X11834467Y-12237793D01*
X11834467Y-12237793D02*
X11853515Y-12228269D01*
X11948753Y-12180650D02*
X11948753Y-12380650D01*
X11948753Y-12190174D02*
X11967801Y-12180650D01*
X11967801Y-12180650D02*
X12005896Y-12180650D01*
X12005896Y-12180650D02*
X12024943Y-12190174D01*
X12024943Y-12190174D02*
X12034467Y-12199698D01*
X12034467Y-12199698D02*
X12043991Y-12218746D01*
X12043991Y-12218746D02*
X12043991Y-12275888D01*
X12043991Y-12275888D02*
X12034467Y-12294936D01*
X12034467Y-12294936D02*
X12024943Y-12304460D01*
X12024943Y-12304460D02*
X12005896Y-12313984D01*
X12005896Y-12313984D02*
X11967801Y-12313984D01*
X11967801Y-12313984D02*
X11948753Y-12304460D01*
X12129705Y-12294936D02*
X12139229Y-12304460D01*
X12139229Y-12304460D02*
X12129705Y-12313984D01*
X12129705Y-12313984D02*
X12120182Y-12304460D01*
X12120182Y-12304460D02*
X12129705Y-12294936D01*
X12129705Y-12294936D02*
X12129705Y-12313984D01*
X12129705Y-12190174D02*
X12139229Y-12199698D01*
X12139229Y-12199698D02*
X12129705Y-12209222D01*
X12129705Y-12209222D02*
X12120182Y-12199698D01*
X12120182Y-12199698D02*
X12129705Y-12190174D01*
X12129705Y-12190174D02*
X12129705Y-12209222D01*
D12*
X10397500Y-12592500D02*
X10497500Y-12692500D01*
X10497500Y-12592500D02*
X10397500Y-12692500D01*
D11*
X10863039Y-12733984D02*
X10748753Y-12733984D01*
X10805896Y-12733984D02*
X10805896Y-12533984D01*
X10805896Y-12533984D02*
X10786848Y-12562555D01*
X10786848Y-12562555D02*
X10767801Y-12581603D01*
X10767801Y-12581603D02*
X10748753Y-12591127D01*
X10948753Y-12714936D02*
X10958277Y-12724460D01*
X10958277Y-12724460D02*
X10948753Y-12733984D01*
X10948753Y-12733984D02*
X10939229Y-12724460D01*
X10939229Y-12724460D02*
X10948753Y-12714936D01*
X10948753Y-12714936D02*
X10948753Y-12733984D01*
X11082086Y-12533984D02*
X11101134Y-12533984D01*
X11101134Y-12533984D02*
X11120182Y-12543508D01*
X11120182Y-12543508D02*
X11129705Y-12553031D01*
X11129705Y-12553031D02*
X11139229Y-12572079D01*
X11139229Y-12572079D02*
X11148753Y-12610174D01*
X11148753Y-12610174D02*
X11148753Y-12657793D01*
X11148753Y-12657793D02*
X11139229Y-12695888D01*
X11139229Y-12695888D02*
X11129705Y-12714936D01*
X11129705Y-12714936D02*
X11120182Y-12724460D01*
X11120182Y-12724460D02*
X11101134Y-12733984D01*
X11101134Y-12733984D02*
X11082086Y-12733984D01*
X11082086Y-12733984D02*
X11063039Y-12724460D01*
X11063039Y-12724460D02*
X11053515Y-12714936D01*
X11053515Y-12714936D02*
X11043991Y-12695888D01*
X11043991Y-12695888D02*
X11034467Y-12657793D01*
X11034467Y-12657793D02*
X11034467Y-12610174D01*
X11034467Y-12610174D02*
X11043991Y-12572079D01*
X11043991Y-12572079D02*
X11053515Y-12553031D01*
X11053515Y-12553031D02*
X11063039Y-12543508D01*
X11063039Y-12543508D02*
X11082086Y-12533984D01*
X11272562Y-12533984D02*
X11291610Y-12533984D01*
X11291610Y-12533984D02*
X11310658Y-12543508D01*
X11310658Y-12543508D02*
X11320182Y-12553031D01*
X11320182Y-12553031D02*
X11329705Y-12572079D01*
X11329705Y-12572079D02*
X11339229Y-12610174D01*
X11339229Y-12610174D02*
X11339229Y-12657793D01*
X11339229Y-12657793D02*
X11329705Y-12695888D01*
X11329705Y-12695888D02*
X11320182Y-12714936D01*
X11320182Y-12714936D02*
X11310658Y-12724460D01*
X11310658Y-12724460D02*
X11291610Y-12733984D01*
X11291610Y-12733984D02*
X11272562Y-12733984D01*
X11272562Y-12733984D02*
X11253515Y-12724460D01*
X11253515Y-12724460D02*
X11243991Y-12714936D01*
X11243991Y-12714936D02*
X11234467Y-12695888D01*
X11234467Y-12695888D02*
X11224943Y-12657793D01*
X11224943Y-12657793D02*
X11224943Y-12610174D01*
X11224943Y-12610174D02*
X11234467Y-12572079D01*
X11234467Y-12572079D02*
X11243991Y-12553031D01*
X11243991Y-12553031D02*
X11253515Y-12543508D01*
X11253515Y-12543508D02*
X11272562Y-12533984D01*
X11463039Y-12533984D02*
X11482086Y-12533984D01*
X11482086Y-12533984D02*
X11501134Y-12543508D01*
X11501134Y-12543508D02*
X11510658Y-12553031D01*
X11510658Y-12553031D02*
X11520182Y-12572079D01*
X11520182Y-12572079D02*
X11529705Y-12610174D01*
X11529705Y-12610174D02*
X11529705Y-12657793D01*
X11529705Y-12657793D02*
X11520182Y-12695888D01*
X11520182Y-12695888D02*
X11510658Y-12714936D01*
X11510658Y-12714936D02*
X11501134Y-12724460D01*
X11501134Y-12724460D02*
X11482086Y-12733984D01*
X11482086Y-12733984D02*
X11463039Y-12733984D01*
X11463039Y-12733984D02*
X11443991Y-12724460D01*
X11443991Y-12724460D02*
X11434467Y-12714936D01*
X11434467Y-12714936D02*
X11424943Y-12695888D01*
X11424943Y-12695888D02*
X11415420Y-12657793D01*
X11415420Y-12657793D02*
X11415420Y-12610174D01*
X11415420Y-12610174D02*
X11424943Y-12572079D01*
X11424943Y-12572079D02*
X11434467Y-12553031D01*
X11434467Y-12553031D02*
X11443991Y-12543508D01*
X11443991Y-12543508D02*
X11463039Y-12533984D01*
X11615420Y-12733984D02*
X11615420Y-12600650D01*
X11615420Y-12619698D02*
X11624943Y-12610174D01*
X11624943Y-12610174D02*
X11643991Y-12600650D01*
X11643991Y-12600650D02*
X11672563Y-12600650D01*
X11672563Y-12600650D02*
X11691610Y-12610174D01*
X11691610Y-12610174D02*
X11701134Y-12629222D01*
X11701134Y-12629222D02*
X11701134Y-12733984D01*
X11701134Y-12629222D02*
X11710658Y-12610174D01*
X11710658Y-12610174D02*
X11729705Y-12600650D01*
X11729705Y-12600650D02*
X11758277Y-12600650D01*
X11758277Y-12600650D02*
X11777324Y-12610174D01*
X11777324Y-12610174D02*
X11786848Y-12629222D01*
X11786848Y-12629222D02*
X11786848Y-12733984D01*
X11882086Y-12733984D02*
X11882086Y-12600650D01*
X11882086Y-12619698D02*
X11891610Y-12610174D01*
X11891610Y-12610174D02*
X11910658Y-12600650D01*
X11910658Y-12600650D02*
X11939229Y-12600650D01*
X11939229Y-12600650D02*
X11958277Y-12610174D01*
X11958277Y-12610174D02*
X11967801Y-12629222D01*
X11967801Y-12629222D02*
X11967801Y-12733984D01*
X11967801Y-12629222D02*
X11977324Y-12610174D01*
X11977324Y-12610174D02*
X11996372Y-12600650D01*
X11996372Y-12600650D02*
X12024943Y-12600650D01*
X12024943Y-12600650D02*
X12043991Y-12610174D01*
X12043991Y-12610174D02*
X12053515Y-12629222D01*
X12053515Y-12629222D02*
X12053515Y-12733984D01*
X12443991Y-12524460D02*
X12272563Y-12781603D01*
X12701134Y-12533984D02*
X12720182Y-12533984D01*
X12720182Y-12533984D02*
X12739229Y-12543508D01*
X12739229Y-12543508D02*
X12748753Y-12553031D01*
X12748753Y-12553031D02*
X12758277Y-12572079D01*
X12758277Y-12572079D02*
X12767801Y-12610174D01*
X12767801Y-12610174D02*
X12767801Y-12657793D01*
X12767801Y-12657793D02*
X12758277Y-12695888D01*
X12758277Y-12695888D02*
X12748753Y-12714936D01*
X12748753Y-12714936D02*
X12739229Y-12724460D01*
X12739229Y-12724460D02*
X12720182Y-12733984D01*
X12720182Y-12733984D02*
X12701134Y-12733984D01*
X12701134Y-12733984D02*
X12682086Y-12724460D01*
X12682086Y-12724460D02*
X12672563Y-12714936D01*
X12672563Y-12714936D02*
X12663039Y-12695888D01*
X12663039Y-12695888D02*
X12653515Y-12657793D01*
X12653515Y-12657793D02*
X12653515Y-12610174D01*
X12653515Y-12610174D02*
X12663039Y-12572079D01*
X12663039Y-12572079D02*
X12672563Y-12553031D01*
X12672563Y-12553031D02*
X12682086Y-12543508D01*
X12682086Y-12543508D02*
X12701134Y-12533984D01*
X12853515Y-12714936D02*
X12863039Y-12724460D01*
X12863039Y-12724460D02*
X12853515Y-12733984D01*
X12853515Y-12733984D02*
X12843991Y-12724460D01*
X12843991Y-12724460D02*
X12853515Y-12714936D01*
X12853515Y-12714936D02*
X12853515Y-12733984D01*
X12986848Y-12533984D02*
X13005896Y-12533984D01*
X13005896Y-12533984D02*
X13024944Y-12543508D01*
X13024944Y-12543508D02*
X13034467Y-12553031D01*
X13034467Y-12553031D02*
X13043991Y-12572079D01*
X13043991Y-12572079D02*
X13053515Y-12610174D01*
X13053515Y-12610174D02*
X13053515Y-12657793D01*
X13053515Y-12657793D02*
X13043991Y-12695888D01*
X13043991Y-12695888D02*
X13034467Y-12714936D01*
X13034467Y-12714936D02*
X13024944Y-12724460D01*
X13024944Y-12724460D02*
X13005896Y-12733984D01*
X13005896Y-12733984D02*
X12986848Y-12733984D01*
X12986848Y-12733984D02*
X12967801Y-12724460D01*
X12967801Y-12724460D02*
X12958277Y-12714936D01*
X12958277Y-12714936D02*
X12948753Y-12695888D01*
X12948753Y-12695888D02*
X12939229Y-12657793D01*
X12939229Y-12657793D02*
X12939229Y-12610174D01*
X12939229Y-12610174D02*
X12948753Y-12572079D01*
X12948753Y-12572079D02*
X12958277Y-12553031D01*
X12958277Y-12553031D02*
X12967801Y-12543508D01*
X12967801Y-12543508D02*
X12986848Y-12533984D01*
X13120182Y-12533984D02*
X13243991Y-12533984D01*
X13243991Y-12533984D02*
X13177325Y-12610174D01*
X13177325Y-12610174D02*
X13205896Y-12610174D01*
X13205896Y-12610174D02*
X13224944Y-12619698D01*
X13224944Y-12619698D02*
X13234467Y-12629222D01*
X13234467Y-12629222D02*
X13243991Y-12648269D01*
X13243991Y-12648269D02*
X13243991Y-12695888D01*
X13243991Y-12695888D02*
X13234467Y-12714936D01*
X13234467Y-12714936D02*
X13224944Y-12724460D01*
X13224944Y-12724460D02*
X13205896Y-12733984D01*
X13205896Y-12733984D02*
X13148753Y-12733984D01*
X13148753Y-12733984D02*
X13129706Y-12724460D01*
X13129706Y-12724460D02*
X13120182Y-12714936D01*
X13339229Y-12733984D02*
X13377325Y-12733984D01*
X13377325Y-12733984D02*
X13396372Y-12724460D01*
X13396372Y-12724460D02*
X13405896Y-12714936D01*
X13405896Y-12714936D02*
X13424944Y-12686365D01*
X13424944Y-12686365D02*
X13434467Y-12648269D01*
X13434467Y-12648269D02*
X13434467Y-12572079D01*
X13434467Y-12572079D02*
X13424944Y-12553031D01*
X13424944Y-12553031D02*
X13415420Y-12543508D01*
X13415420Y-12543508D02*
X13396372Y-12533984D01*
X13396372Y-12533984D02*
X13358277Y-12533984D01*
X13358277Y-12533984D02*
X13339229Y-12543508D01*
X13339229Y-12543508D02*
X13329706Y-12553031D01*
X13329706Y-12553031D02*
X13320182Y-12572079D01*
X13320182Y-12572079D02*
X13320182Y-12619698D01*
X13320182Y-12619698D02*
X13329706Y-12638746D01*
X13329706Y-12638746D02*
X13339229Y-12648269D01*
X13339229Y-12648269D02*
X13358277Y-12657793D01*
X13358277Y-12657793D02*
X13396372Y-12657793D01*
X13396372Y-12657793D02*
X13415420Y-12648269D01*
X13415420Y-12648269D02*
X13424944Y-12638746D01*
X13424944Y-12638746D02*
X13434467Y-12619698D01*
X13605896Y-12600650D02*
X13605896Y-12733984D01*
X13558277Y-12524460D02*
X13510658Y-12667317D01*
X13510658Y-12667317D02*
X13634467Y-12667317D01*
X13701134Y-12533984D02*
X13701134Y-12572079D01*
X13777325Y-12533984D02*
X13777325Y-12572079D01*
X14072563Y-12810174D02*
X14063039Y-12800650D01*
X14063039Y-12800650D02*
X14043991Y-12772079D01*
X14043991Y-12772079D02*
X14034468Y-12753031D01*
X14034468Y-12753031D02*
X14024944Y-12724460D01*
X14024944Y-12724460D02*
X14015420Y-12676841D01*
X14015420Y-12676841D02*
X14015420Y-12638746D01*
X14015420Y-12638746D02*
X14024944Y-12591127D01*
X14024944Y-12591127D02*
X14034468Y-12562555D01*
X14034468Y-12562555D02*
X14043991Y-12543508D01*
X14043991Y-12543508D02*
X14063039Y-12514936D01*
X14063039Y-12514936D02*
X14072563Y-12505412D01*
X14243991Y-12533984D02*
X14148753Y-12533984D01*
X14148753Y-12533984D02*
X14139229Y-12629222D01*
X14139229Y-12629222D02*
X14148753Y-12619698D01*
X14148753Y-12619698D02*
X14167801Y-12610174D01*
X14167801Y-12610174D02*
X14215420Y-12610174D01*
X14215420Y-12610174D02*
X14234468Y-12619698D01*
X14234468Y-12619698D02*
X14243991Y-12629222D01*
X14243991Y-12629222D02*
X14253515Y-12648269D01*
X14253515Y-12648269D02*
X14253515Y-12695888D01*
X14253515Y-12695888D02*
X14243991Y-12714936D01*
X14243991Y-12714936D02*
X14234468Y-12724460D01*
X14234468Y-12724460D02*
X14215420Y-12733984D01*
X14215420Y-12733984D02*
X14167801Y-12733984D01*
X14167801Y-12733984D02*
X14148753Y-12724460D01*
X14148753Y-12724460D02*
X14139229Y-12714936D01*
X14367801Y-12619698D02*
X14348753Y-12610174D01*
X14348753Y-12610174D02*
X14339229Y-12600650D01*
X14339229Y-12600650D02*
X14329706Y-12581603D01*
X14329706Y-12581603D02*
X14329706Y-12572079D01*
X14329706Y-12572079D02*
X14339229Y-12553031D01*
X14339229Y-12553031D02*
X14348753Y-12543508D01*
X14348753Y-12543508D02*
X14367801Y-12533984D01*
X14367801Y-12533984D02*
X14405896Y-12533984D01*
X14405896Y-12533984D02*
X14424944Y-12543508D01*
X14424944Y-12543508D02*
X14434468Y-12553031D01*
X14434468Y-12553031D02*
X14443991Y-12572079D01*
X14443991Y-12572079D02*
X14443991Y-12581603D01*
X14443991Y-12581603D02*
X14434468Y-12600650D01*
X14434468Y-12600650D02*
X14424944Y-12610174D01*
X14424944Y-12610174D02*
X14405896Y-12619698D01*
X14405896Y-12619698D02*
X14367801Y-12619698D01*
X14367801Y-12619698D02*
X14348753Y-12629222D01*
X14348753Y-12629222D02*
X14339229Y-12638746D01*
X14339229Y-12638746D02*
X14329706Y-12657793D01*
X14329706Y-12657793D02*
X14329706Y-12695888D01*
X14329706Y-12695888D02*
X14339229Y-12714936D01*
X14339229Y-12714936D02*
X14348753Y-12724460D01*
X14348753Y-12724460D02*
X14367801Y-12733984D01*
X14367801Y-12733984D02*
X14405896Y-12733984D01*
X14405896Y-12733984D02*
X14424944Y-12724460D01*
X14424944Y-12724460D02*
X14434468Y-12714936D01*
X14434468Y-12714936D02*
X14443991Y-12695888D01*
X14443991Y-12695888D02*
X14443991Y-12657793D01*
X14443991Y-12657793D02*
X14434468Y-12638746D01*
X14434468Y-12638746D02*
X14424944Y-12629222D01*
X14424944Y-12629222D02*
X14405896Y-12619698D01*
X14682087Y-12733984D02*
X14682087Y-12533984D01*
X14767801Y-12733984D02*
X14767801Y-12629222D01*
X14767801Y-12629222D02*
X14758277Y-12610174D01*
X14758277Y-12610174D02*
X14739230Y-12600650D01*
X14739230Y-12600650D02*
X14710658Y-12600650D01*
X14710658Y-12600650D02*
X14691610Y-12610174D01*
X14691610Y-12610174D02*
X14682087Y-12619698D01*
X14891610Y-12733984D02*
X14872563Y-12724460D01*
X14872563Y-12724460D02*
X14863039Y-12714936D01*
X14863039Y-12714936D02*
X14853515Y-12695888D01*
X14853515Y-12695888D02*
X14853515Y-12638746D01*
X14853515Y-12638746D02*
X14863039Y-12619698D01*
X14863039Y-12619698D02*
X14872563Y-12610174D01*
X14872563Y-12610174D02*
X14891610Y-12600650D01*
X14891610Y-12600650D02*
X14920182Y-12600650D01*
X14920182Y-12600650D02*
X14939230Y-12610174D01*
X14939230Y-12610174D02*
X14948753Y-12619698D01*
X14948753Y-12619698D02*
X14958277Y-12638746D01*
X14958277Y-12638746D02*
X14958277Y-12695888D01*
X14958277Y-12695888D02*
X14948753Y-12714936D01*
X14948753Y-12714936D02*
X14939230Y-12724460D01*
X14939230Y-12724460D02*
X14920182Y-12733984D01*
X14920182Y-12733984D02*
X14891610Y-12733984D01*
X15072563Y-12733984D02*
X15053515Y-12724460D01*
X15053515Y-12724460D02*
X15043991Y-12705412D01*
X15043991Y-12705412D02*
X15043991Y-12533984D01*
X15224944Y-12724460D02*
X15205896Y-12733984D01*
X15205896Y-12733984D02*
X15167801Y-12733984D01*
X15167801Y-12733984D02*
X15148753Y-12724460D01*
X15148753Y-12724460D02*
X15139230Y-12705412D01*
X15139230Y-12705412D02*
X15139230Y-12629222D01*
X15139230Y-12629222D02*
X15148753Y-12610174D01*
X15148753Y-12610174D02*
X15167801Y-12600650D01*
X15167801Y-12600650D02*
X15205896Y-12600650D01*
X15205896Y-12600650D02*
X15224944Y-12610174D01*
X15224944Y-12610174D02*
X15234468Y-12629222D01*
X15234468Y-12629222D02*
X15234468Y-12648269D01*
X15234468Y-12648269D02*
X15139230Y-12667317D01*
X15310658Y-12724460D02*
X15329706Y-12733984D01*
X15329706Y-12733984D02*
X15367801Y-12733984D01*
X15367801Y-12733984D02*
X15386849Y-12724460D01*
X15386849Y-12724460D02*
X15396372Y-12705412D01*
X15396372Y-12705412D02*
X15396372Y-12695888D01*
X15396372Y-12695888D02*
X15386849Y-12676841D01*
X15386849Y-12676841D02*
X15367801Y-12667317D01*
X15367801Y-12667317D02*
X15339230Y-12667317D01*
X15339230Y-12667317D02*
X15320182Y-12657793D01*
X15320182Y-12657793D02*
X15310658Y-12638746D01*
X15310658Y-12638746D02*
X15310658Y-12629222D01*
X15310658Y-12629222D02*
X15320182Y-12610174D01*
X15320182Y-12610174D02*
X15339230Y-12600650D01*
X15339230Y-12600650D02*
X15367801Y-12600650D01*
X15367801Y-12600650D02*
X15386849Y-12610174D01*
X15463039Y-12810174D02*
X15472563Y-12800650D01*
X15472563Y-12800650D02*
X15491611Y-12772079D01*
X15491611Y-12772079D02*
X15501134Y-12753031D01*
X15501134Y-12753031D02*
X15510658Y-12724460D01*
X15510658Y-12724460D02*
X15520182Y-12676841D01*
X15520182Y-12676841D02*
X15520182Y-12638746D01*
X15520182Y-12638746D02*
X15510658Y-12591127D01*
X15510658Y-12591127D02*
X15501134Y-12562555D01*
X15501134Y-12562555D02*
X15491611Y-12543508D01*
X15491611Y-12543508D02*
X15472563Y-12514936D01*
X15472563Y-12514936D02*
X15463039Y-12505412D01*
M02*
